# xmcd
#
# Track frame offsets: 
#        182
#        12422
#        25700
#        43507
#        53750
#        66460
#        81845
#        96702
#        109365
#        122235
#        135762
#        151465
#        165610
#        175872
#        189622
#        202135
#        214567
#        225867
#        240267
#        252682
#
# Disc length: 3558 seconds
#
# Revision: 6
# Processed by: cddbd v1.5.2PL0 Copyright (c) Steve Scherf et al.
# Submitted via: ExactAudioCopyFreeDBPlugin 1.0
#
DISCID=140de414
DTITLE=Tom Astor - Meine Trucker-Hitparade
DYEAR=2004
DGENRE=Country
TTITLE0=14 Tage auf dem Brenner
TTITLE1=Buchstabiere LKW
TTITLE2=Mein Freund Charly
TTITLE3=Ihr Leben, das ist ihr Laster
TTITLE4=Junge, zieh die Bremse an
TTITLE5=Das schöne Mädchen von der Autobahn
TTITLE6=Devil
TTITLE7=Ich bin wieder auf der Autobahn
TTITLE8=Truckstop Mama
TTITLE9=Truck Drivin' Girl
TTITLE10=Und in Hamburg sitzt Gaby
TTITLE11=Banks Of Ohio - Viel erlebt und viel versäumt
TTITLE12=Danke Brummi
TTITLE13=Der Truck, das ist sein Leben
TTITLE14=Radwechsel
TTITLE15=Dieser Hintern hat das Zeug zu einem Weltstar
TTITLE16=Ist das ein Leben - so hart und schön
TTITLE17=Ich bin ein Gefangener der Autobahn
TTITLE18=Verdammte Rardarfalle - Lady Trucker
TTITLE19=Ich hör' so gerne Cajun Music
EXTD=
EXTT0=
EXTT1=
EXTT2=
EXTT3=
EXTT4=
EXTT5=
EXTT6=
EXTT7=
EXTT8=
EXTT9=
EXTT10=
EXTT11=
EXTT12=
EXTT13=
EXTT14=
EXTT15=
EXTT16=
EXTT17=
EXTT18=
EXTT19=
PLAYORDER=
